<svg xmlns="http://www.w3.org/2000/svg" width="378" height="88" viewBox="0 0 378 88">
  <g id="Group_1" data-name="Group 1" transform="translate(-307 -313)">
    <rect id="Rectangle_12" data-name="Rectangle 12" width="10" height="50" transform="translate(307 351)" fill="#f7f7f7"/>
    <rect id="Rectangle_13" data-name="Rectangle 13" width="10" height="88" transform="translate(326 313)" fill="#f7f7f7"/>
    <rect id="Rectangle_14" data-name="Rectangle 14" width="10" height="81" transform="translate(580 320)" fill="#f7f7f7"/>
    <rect id="Rectangle_15" data-name="Rectangle 15" width="10" height="65" transform="translate(344 336)" fill="#f7f7f7"/>
    <path id="Path_6" data-name="Path 6" d="M0,0H10V40.5H0V0Z" transform="translate(385 360.5)" fill="#f7f7f7"/>
    <path id="Path_7" data-name="Path 7" d="M0,0H10V76H0V0Z" transform="translate(366 325)" fill="#f7f7f7"/>
    <rect id="Rectangle_17" data-name="Rectangle 17" width="10" height="61" transform="translate(600 340)" fill="#f7f7f7"/>
    <rect id="Rectangle_18" data-name="Rectangle 18" width="10" height="53" transform="translate(405 348)" fill="#f7f7f7"/>
    <rect id="Rectangle_19" data-name="Rectangle 19" width="10" height="53" transform="translate(620 348)" fill="#f7f7f7"/>
    <rect id="Rectangle_20" data-name="Rectangle 20" width="10" height="25" transform="translate(425 376)" fill="#f7f7f7"/>
    <rect id="Rectangle_21" data-name="Rectangle 21" width="10" height="88" transform="translate(443 313)" fill="#f7f7f7"/>
    <rect id="Rectangle_22" data-name="Rectangle 22" width="10" height="88" transform="translate(639 313)" fill="#f7f7f7"/>
    <rect id="Rectangle_23" data-name="Rectangle 23" width="10" height="73" transform="translate(657 328)" fill="#f7f7f7"/>
    <rect id="Rectangle_24" data-name="Rectangle 24" width="10" height="31" transform="translate(675 370)" fill="#f7f7f7"/>
    <rect id="Rectangle_25" data-name="Rectangle 25" width="10" height="76" transform="translate(463 325)" fill="#f7f7f7"/>
    <rect id="Rectangle_26" data-name="Rectangle 26" width="10" height="53" transform="translate(483 348)" fill="#f7f7f7"/>
    <rect id="Rectangle_27" data-name="Rectangle 27" width="10" height="61" transform="translate(504 340)" fill="#f7f7f7"/>
    <rect id="Rectangle_28" data-name="Rectangle 28" width="10" height="28" transform="translate(522 373)" fill="#f7f7f7"/>
    <rect id="Rectangle_29" data-name="Rectangle 29" width="10" height="88" transform="translate(542 313)" fill="#f7f7f7"/>
    <rect id="Rectangle_30" data-name="Rectangle 30" width="10" height="50" transform="translate(561 351)" fill="#f7f7f7"/>
  </g>
</svg>
